<svg version="1.1" xmlns="http://www.w3.org/2000/svg" xmlns:xlink="http://www.w3.org/1999/xlink" width="512px" height="512px" viewBox="0,0,256,256"><defs><clipPath id="clip-1"><path d="M0,256v-256h256v256zM247.35,193.38571c1.46786,-3.39643 1.34464,-7.39821 -0.62679,-10.81607l-1.93393,-3.35357c-1.9125,-3.31607 -5.29821,-5.50714 -9.05357,-5.94643c-0.42321,-3.675 -2.53393,-7.08214 -5.95179,-9.05893l-3.35357,-1.93393c-1.83214,-1.05536 -3.91607,-1.61786 -6.02679,-1.61786c-1.66071,0 -3.28929,0.34821 -4.78393,0.99643c-2.20179,-2.97321 -5.7375,-4.86964 -9.68571,-4.86964h-3.86786c-3.94821,0 -7.48393,1.89643 -9.68571,4.86964c-1.49464,-0.64286 -3.12321,-0.99107 -4.78393,-0.99107c-2.11071,0 -4.19464,0.55714 -6.02679,1.61786l-3.35357,1.93393c-3.41786,1.97143 -5.52857,5.37857 -5.95179,9.05357c-3.75536,0.43929 -7.14107,2.63571 -9.05357,5.94643l-1.93393,3.35357c-1.98214,3.42857 -2.1,7.45714 -0.60536,10.86429c-2.98929,2.2125 -4.88571,5.72143 -4.88571,9.63214v3.86786c0,3.94286 1.89643,7.47321 4.86429,9.68036c-1.46786,3.39643 -1.34464,7.39821 0.62679,10.81607l1.93393,3.35357c1.9125,3.31607 5.29821,5.50714 9.05357,5.94643c0.42321,3.675 2.53393,7.08214 5.95179,9.05893l3.35357,1.93393c1.83214,1.05536 3.91607,1.61786 6.02679,1.61786c1.66071,0 3.28929,-0.34821 4.78393,-0.99643c2.20179,2.97321 5.7375,4.86964 9.68571,4.86964h3.86786c3.94821,0 7.47857,-1.89643 9.68571,-4.86964c1.49464,0.64821 3.12321,0.99643 4.78393,0.99643c2.11071,0 4.19464,-0.55714 6.02679,-1.6125l3.35357,-1.93393c3.41786,-1.97143 5.52857,-5.37857 5.95179,-9.05893c3.75536,-0.43929 7.14107,-2.63036 9.05357,-5.94643l1.93393,-3.35357c1.97143,-3.4125 2.09464,-7.41964 0.62679,-10.81607c2.97321,-2.2125 4.86429,-5.74286 4.86429,-9.68571v-3.86786c0,-3.94286 -1.89643,-7.47321 -4.86429,-9.68036z" id="overlayBgMask" fill="none"></path></clipPath></defs><g clip-path="url(#clip-1)" fill="none" fill-rule="nonzero" stroke="none" stroke-width="1" stroke-linecap="butt" stroke-linejoin="miter" stroke-miterlimit="10" stroke-dasharray="" stroke-dashoffset="0" font-family="none" font-weight="none" font-size="none" text-anchor="none" style="mix-blend-mode: normal"><g transform="scale(0.5,0.5)" fill="#33b2f0"><path d="M113,41v25h70v-25zM329,41v25h70v-25zM90.44922,78c-29.775,0 -54.44922,24.62239 -54.44922,54.40039v27.59961h440v-27.59961c0,-29.778 -24.67422,-54.40039 -54.44922,-54.40039zM36,172v244.96484c0,29.776 24.67422,54.03516 54.44922,54.03516h351.09961c18.751,0 34.45117,-15.28716 34.45117,-34.03516v-264.96484zM176,198h62c3.31371,0 6,2.68629 6,6v60c0,3.31371 -2.68629,6 -6,6h-62c-3.31371,0 -6,-2.68629 -6,-6v-60c0,-3.31371 2.68629,-6 6,-6zM276,198h62c3.31371,0 6,2.68629 6,6v60c0,3.31371 -2.68629,6 -6,6h-62c-3.31371,0 -6,-2.68629 -6,-6v-60c0,-3.31371 2.68629,-6 6,-6zM376,198h62c3.31371,0 6,2.68629 6,6v60c0,3.31371 -2.68629,6 -6,6h-62c-3.31371,0 -6,-2.68629 -6,-6v-60c0,-3.31371 2.68629,-6 6,-6zM182,210v48h49v-48zM282,210v48h49v-48zM382,210v48h49v-48zM76,287h62c3.31371,0 6,2.68629 6,6v60c0,3.31371 -2.68629,6 -6,6h-62c-3.31371,0 -6,-2.68629 -6,-6v-60c0,-3.31371 2.68629,-6 6,-6zM176,287h62c3.31371,0 6,2.68629 6,6v60c0,3.31371 -2.68629,6 -6,6h-62c-3.31371,0 -6,-2.68629 -6,-6v-60c0,-3.31371 2.68629,-6 6,-6zM276,287h62c3.31371,0 6,2.68629 6,6v60c0,3.31371 -2.68629,6 -6,6h-62c-3.31371,0 -6,-2.68629 -6,-6v-60c0,-3.31371 2.68629,-6 6,-6zM376,287h62c3.31371,0 6,2.68629 6,6v60c0,3.31371 -2.68629,6 -6,6h-62c-3.31371,0 -6,-2.68629 -6,-6v-60c0,-3.31371 2.68629,-6 6,-6zM82,299v48h49v-48zM182,299v48h49v-48zM282,299v48h49v-48zM382,299v48h49v-48zM76,376h62c3.31371,0 6,2.68629 6,6v60c0,3.31371 -2.68629,6 -6,6h-62c-3.31371,0 -6,-2.68629 -6,-6v-60c0,-3.31371 2.68629,-6 6,-6zM176,376h62c3.31371,0 6,2.68629 6,6v60c0,3.31371 -2.68629,6 -6,6h-62c-3.31371,0 -6,-2.68629 -6,-6v-60c0,-3.31371 2.68629,-6 6,-6zM276,376h62c3.31371,0 6,2.68629 6,6v60c0,3.31371 -2.68629,6 -6,6h-62c-3.31371,0 -6,-2.68629 -6,-6v-60c0,-3.31371 2.68629,-6 6,-6zM82,388v48h49v-48zM182,388v48h49v-48zM282,388v48h49v-48z"></path></g></g><g fill="#5c7cfa" fill-rule="nonzero" stroke="none" stroke-width="1" stroke-linecap="butt" stroke-linejoin="miter" stroke-miterlimit="10" stroke-dasharray="" stroke-dashoffset="0" font-family="none" font-weight="none" font-size="none" text-anchor="none" style="mix-blend-mode: normal"><g transform="translate(166.5,167.5) scale(5.35714,5.35714)" id="overlay"><g><path d="M14,7.361v-0.722c0,-0.127 -0.096,-0.234 -0.223,-0.248l-0.256,-0.028c-0.327,-0.036 -0.586,-0.283 -0.654,-0.605c-0.044,-0.209 -0.099,-0.415 -0.164,-0.616c-0.101,-0.313 -0.001,-0.655 0.264,-0.85l0.206,-0.152c0.103,-0.075 0.132,-0.216 0.068,-0.326l-0.361,-0.626c-0.064,-0.11 -0.2,-0.155 -0.317,-0.104l-0.24,0.106c-0.301,0.132 -0.648,0.048 -0.868,-0.196c-0.142,-0.157 -0.291,-0.307 -0.449,-0.449c-0.244,-0.22 -0.328,-0.567 -0.196,-0.868l0.105,-0.24c0.051,-0.117 0.006,-0.253 -0.104,-0.317l-0.626,-0.361c-0.11,-0.064 -0.251,-0.034 -0.327,0.068l-0.149,0.205c-0.195,0.265 -0.537,0.365 -0.85,0.264c-0.201,-0.065 -0.406,-0.12 -0.616,-0.164c-0.322,-0.067 -0.569,-0.326 -0.605,-0.653l-0.028,-0.256c-0.014,-0.127 -0.121,-0.223 -0.249,-0.223h-0.722c-0.128,0 -0.235,0.096 -0.249,0.223l-0.028,0.256c-0.036,0.327 -0.283,0.586 -0.605,0.653c-0.21,0.044 -0.415,0.099 -0.616,0.164c-0.313,0.101 -0.655,0.001 -0.85,-0.264l-0.152,-0.206c-0.075,-0.103 -0.216,-0.133 -0.326,-0.069l-0.626,0.361c-0.11,0.064 -0.155,0.2 -0.104,0.317l0.105,0.24c0.132,0.301 0.048,0.648 -0.196,0.868c-0.157,0.142 -0.307,0.292 -0.448,0.449c-0.22,0.244 -0.567,0.328 -0.868,0.196l-0.24,-0.106c-0.117,-0.05 -0.254,-0.005 -0.318,0.105l-0.361,0.626c-0.064,0.11 -0.034,0.251 0.068,0.326l0.206,0.152c0.265,0.195 0.365,0.537 0.264,0.85c-0.065,0.201 -0.12,0.406 -0.164,0.616c-0.066,0.322 -0.326,0.569 -0.653,0.605l-0.214,0.024c-0.169,0.018 -0.264,0.125 -0.264,0.253v0.722c0,0.128 0.096,0.235 0.223,0.249l0.256,0.028c0.327,0.036 0.586,0.283 0.654,0.605c0.044,0.209 0.099,0.415 0.164,0.616c0.101,0.313 0.001,0.655 -0.264,0.85l-0.207,0.152c-0.103,0.075 -0.132,0.216 -0.069,0.326l0.361,0.626c0.064,0.11 0.2,0.155 0.317,0.104l0.24,-0.106c0.301,-0.132 0.648,-0.048 0.868,0.196c0.142,0.157 0.291,0.307 0.449,0.449c0.244,0.22 0.328,0.567 0.196,0.868l-0.105,0.24c-0.051,0.117 -0.006,0.253 0.104,0.317l0.626,0.361c0.11,0.064 0.251,0.034 0.326,-0.068l0.151,-0.206c0.195,-0.265 0.537,-0.366 0.85,-0.264c0.201,0.065 0.406,0.12 0.616,0.164c0.322,0.067 0.569,0.326 0.605,0.654l0.028,0.256c0.015,0.126 0.122,0.222 0.25,0.222h0.722c0.127,0 0.234,-0.096 0.248,-0.223l0.028,-0.256c0.036,-0.327 0.283,-0.586 0.605,-0.654c0.209,-0.044 0.415,-0.099 0.616,-0.164c0.313,-0.101 0.655,-0.001 0.85,0.264l0.151,0.206c0.075,0.103 0.216,0.132 0.326,0.068l0.626,-0.361c0.11,-0.064 0.155,-0.2 0.104,-0.317l-0.105,-0.24c-0.132,-0.301 -0.048,-0.648 0.196,-0.868c0.157,-0.142 0.307,-0.291 0.449,-0.449c0.22,-0.244 0.567,-0.328 0.868,-0.196l0.24,0.106c0.117,0.051 0.253,0.006 0.317,-0.104l0.361,-0.626c0.064,-0.11 0.034,-0.251 -0.069,-0.326l-0.206,-0.152c-0.265,-0.195 -0.365,-0.537 -0.264,-0.85c0.065,-0.201 0.12,-0.406 0.164,-0.616c0.067,-0.322 0.327,-0.569 0.654,-0.605c0.093,-0.01 0.181,-0.02 0.256,-0.028c0.129,-0.013 0.224,-0.12 0.224,-0.248zM7,11c-2.209,0 -4,-1.791 -4,-4c0,-2.209 1.791,-4 4,-4c2.209,0 4,1.791 4,4c0,2.209 -1.791,4 -4,4zM8,7c0,0.552 -0.448,1 -1,1c-0.552,0 -1,-0.448 -1,-1c0,-0.552 0.448,-1 1,-1c0.552,0 1,0.448 1,1z"></path></g></g></g></svg>
